<svg width="50" height="50" viewBox="0 0 50 50" fill="none" xmlns="http://www.w3.org/2000/svg">
<path d="M2.78998 0.352954C-1.11466 2.03639 -0.857467 7.76476 3.16408 9.09748C4.42666 9.51834 6.227 9.23776 7.32591 8.46619C10.3187 6.33851 9.85107 1.75582 6.48419 0.329573C5.38528 -0.114668 3.84213 -0.114668 2.78998 0.352954Z" fill="#0066FF"/>
<path d="M13.3582 7.48367C12.002 7.74086 10.1549 8.79301 9.28984 9.77501C8.89237 10.2193 8.28446 11.1779 7.95712 11.9027C7.34921 13.1653 7.34921 13.3056 7.27907 19.0807L7.18555 24.9961H10.1316H13.0776V19.5483C13.0776 14.1473 13.0776 14.0771 13.6153 13.5861C14.1531 13.0951 14.3402 13.0717 19.5775 13.0717H25.0019V10.1491V7.22647L19.6944 7.24986C16.7484 7.27324 13.9193 7.36676 13.3582 7.48367Z" fill="#0066FF"/>
<path d="M0.352955 47.21C2.03639 51.1147 7.76476 50.8575 9.09748 46.8359C9.51834 45.5733 9.23776 43.773 8.46619 42.6741C6.33851 39.6813 1.75582 40.1489 0.329574 43.5158C-0.114667 44.6147 -0.114667 46.1579 0.352955 47.21Z" fill="#0066FF"/>
<path d="M7.48562 36.6418C7.74281 37.998 8.79496 39.8451 9.77697 40.7102C10.2212 41.1076 11.1798 41.7155 11.9046 42.0429C13.1672 42.6508 13.3075 42.6508 19.0826 42.7209L24.998 42.8145V39.8684V36.9224H19.5503C14.1492 36.9224 14.0791 36.9224 13.5881 36.3847C13.0971 35.8469 13.0737 35.6598 13.0737 30.4225L13.0737 24.9981H10.1511H7.22843L7.25181 30.3056C7.27519 33.2516 7.36872 36.0807 7.48562 36.6418Z" fill="#0066FF"/>
<path d="M47.1124 49.649C51.017 47.9656 50.7598 42.2372 46.7383 40.9045C45.4757 40.4836 43.6753 40.7642 42.5764 41.5358C39.5837 43.6634 40.0513 48.2461 43.4182 49.6724C44.5171 50.1166 46.0602 50.1166 47.1124 49.649Z" fill="#0066FF"/>
<path d="M36.5442 42.5183C37.9003 42.2611 39.7474 41.2089 40.6125 40.2269C41.01 39.7827 41.6179 38.8241 41.9452 38.0993C42.5531 36.8367 42.5531 36.6964 42.6233 30.9213L42.7168 25.0059H39.7708H36.8248V30.4537C36.8248 35.8547 36.8248 35.9248 36.287 36.4158C35.7492 36.9068 35.5622 36.9302 30.3248 36.9302H24.9004V39.8528L24.9004 42.7755L30.2079 42.7521C33.1539 42.7287 35.983 42.6352 36.5442 42.5183Z" fill="#0066FF"/>
<path d="M49.5474 2.78998C47.864 -1.11466 42.1356 -0.857467 40.8029 3.16408C40.3821 4.42666 40.6626 6.227 41.4342 7.32591C43.5619 10.3187 48.1446 9.85107 49.5708 6.48419C50.0151 5.38528 50.0151 3.84213 49.5474 2.78998Z" fill="#0066FF"/>
<path d="M42.4148 13.3582C42.1576 12.002 41.1054 10.1549 40.1234 9.28984C39.6792 8.89237 38.7206 8.28446 37.9957 7.95712C36.7332 7.34921 36.5929 7.34921 30.8178 7.27907L24.9023 7.18555V10.1316V13.0776H30.3501C35.7512 13.0776 35.8213 13.0776 36.3123 13.6153C36.8033 14.1531 36.8267 14.3402 36.8267 19.5775V25.0019H39.7493H42.672L42.6486 19.6944C42.6252 16.7484 42.5317 13.9193 42.4148 13.3582Z" fill="#0066FF"/>
</svg>
