<svg width="199" height="7" viewBox="0 0 199 7" fill="none" xmlns="http://www.w3.org/2000/svg">
<path d="M0.333333 3.5C0.333333 4.97276 1.52724 6.16667 3 6.16667C4.47276 6.16667 5.66667 4.97276 5.66667 3.5C5.66667 2.02724 4.47276 0.833333 3 0.833333C1.52724 0.833333 0.333333 2.02724 0.333333 3.5ZM193.333 3.50002C193.333 4.97278 194.527 6.16668 196 6.16668C197.473 6.16668 198.667 4.97278 198.667 3.50002C198.667 2.02726 197.473 0.83335 196 0.83335C194.527 0.83335 193.333 2.02726 193.333 3.50002ZM3 4L196 4.00002L196 3.00002L3 3L3 4Z" fill="#E4E6FF"/>
</svg>
