<svg width="185" height="14" viewBox="0 0 185 14" fill="none" xmlns="http://www.w3.org/2000/svg">
<path d="M18 0.5L19.854 4.1204L24 4.70452L21 7.52103L21.708 11.5L18 9.6204L14.292 11.5L15 7.52103L12 4.70452L16.146 4.1204L18 0.5Z" fill="#FF983E"/>
<path opacity="0.7" d="M3.85414 9.712H7.76014V11H1.13814V10.664L4.42814 7.122C4.96014 6.562 5.33814 6.09533 5.56214 5.722C5.78614 5.34867 5.89814 4.97067 5.89814 4.588C5.89814 4.112 5.75814 3.72467 5.47814 3.426C5.19814 3.118 4.82481 2.964 4.35814 2.964C3.89147 2.964 3.51347 3.12267 3.22414 3.44C2.93481 3.75733 2.79014 4.15867 2.79014 4.644C2.79014 4.812 2.81347 5.05 2.86014 5.358H1.36214C1.29681 5.12467 1.26414 4.85867 1.26414 4.56C1.26414 3.76667 1.55347 3.076 2.13214 2.488C2.71081 1.9 3.45747 1.606 4.37214 1.606C5.24947 1.606 5.97747 1.88133 6.55614 2.432C7.14414 2.98267 7.43814 3.664 7.43814 4.476C7.43814 5.11067 7.27014 5.68467 6.93414 6.198C6.63547 6.674 6.15014 7.27133 5.47814 7.99L3.85414 9.712Z" fill="#515151"/>
<path opacity="0.7" d="M176.132 8.52C176.132 9.136 175.884 9.64 175.388 10.032C174.9 10.424 174.248 10.62 173.432 10.62C172.616 10.62 171.96 10.424 171.464 10.032C170.976 9.632 170.732 9.124 170.732 8.508C170.732 7.532 171.412 6.808 172.772 6.336C171.668 5.888 171.116 5.228 171.116 4.356C171.116 3.764 171.336 3.3 171.776 2.964C172.224 2.628 172.776 2.46 173.432 2.46C174.088 2.46 174.64 2.628 175.088 2.964C175.528 3.3 175.748 3.768 175.748 4.368C175.748 5.248 175.196 5.904 174.092 6.336C175.452 6.808 176.132 7.536 176.132 8.52ZM173.432 6.036C174.024 5.804 174.452 5.568 174.716 5.328C174.988 5.08 175.124 4.764 175.124 4.38C175.124 3.964 174.964 3.632 174.644 3.384C174.332 3.128 173.928 3 173.432 3C172.936 3 172.528 3.128 172.208 3.384C171.888 3.632 171.728 3.964 171.728 4.38C171.728 4.756 171.864 5.072 172.136 5.328C172.408 5.576 172.84 5.812 173.432 6.036ZM175.496 8.508C175.48 8.02 175.312 7.648 174.992 7.392C174.672 7.136 174.152 6.884 173.432 6.636C172.712 6.884 172.192 7.136 171.872 7.392C171.552 7.648 171.384 8.02 171.368 8.508C171.368 8.988 171.552 9.372 171.92 9.66C172.288 9.94 172.792 10.08 173.432 10.08C174.072 10.08 174.576 9.94 174.944 9.66C175.312 9.372 175.496 8.988 175.496 8.508ZM178.403 9.456C177.947 8.68 177.719 7.684 177.719 6.468C177.719 5.252 177.947 4.28 178.403 3.552C178.867 2.824 179.567 2.46 180.503 2.46C181.439 2.46 182.135 2.824 182.591 3.552C183.055 4.264 183.287 5.236 183.287 6.468C183.287 7.684 183.059 8.68 182.603 9.456C182.147 10.232 181.447 10.62 180.503 10.62C179.559 10.62 178.859 10.232 178.403 9.456ZM182.639 6.468C182.639 4.18 181.927 3.036 180.503 3.036C179.087 3.036 178.379 4.18 178.379 6.468C178.379 7.548 178.547 8.412 178.883 9.06C179.235 9.708 179.775 10.032 180.503 10.032C181.247 10.032 181.787 9.708 182.123 9.06C182.467 8.42 182.639 7.556 182.639 6.468Z" fill="#515151"/>
<rect x="31" y="1.5" width="128" height="10" rx="5" fill="#D5E3FF"/>
<rect x="31" y="1.5" width="25" height="10" rx="5" fill="#FF983E"/>
</svg>
