<svg width="190" height="15" viewBox="0 0 190 15" fill="none" xmlns="http://www.w3.org/2000/svg">
<path d="M18 1L19.854 4.6204L24 5.20452L21 8.02103L21.708 12L18 10.1204L14.292 12L15 8.02103L12 5.20452L16.146 4.6204L18 1Z" fill="#FF983E"/>
<path opacity="0.7" d="M7.11522 8.532C7.11522 9.44667 6.78389 10.198 6.12122 10.786C5.46789 11.3647 4.67455 11.654 3.74122 11.654C3.01322 11.654 2.36922 11.4767 1.80922 11.122C1.24922 10.758 0.810552 10.268 0.493219 9.652L1.52922 8.924C2.12655 9.83867 2.84989 10.296 3.69922 10.296C4.25922 10.296 4.71189 10.1373 5.05722 9.82C5.41189 9.49333 5.58922 9.06867 5.58922 8.546C5.58922 8.02333 5.40255 7.622 5.02922 7.342C4.66522 7.062 4.14255 6.922 3.46122 6.922H2.43922V6.516L4.59522 3.618H1.15122V2.26H6.90522V2.666L4.66522 5.69C5.33722 5.802 5.91589 6.10533 6.40122 6.6C6.87722 7.08533 7.11522 7.72933 7.11522 8.532Z" fill="#515151"/>
<path opacity="0.7" d="M172.784 3.08H173.036V11H172.412V3.788L170.576 4.388L170.432 3.848L172.784 3.08ZM175.977 9.956C175.521 9.18 175.293 8.184 175.293 6.968C175.293 5.752 175.521 4.78 175.977 4.052C176.441 3.324 177.141 2.96 178.077 2.96C179.013 2.96 179.709 3.324 180.165 4.052C180.629 4.764 180.861 5.736 180.861 6.968C180.861 8.184 180.633 9.18 180.177 9.956C179.721 10.732 179.021 11.12 178.077 11.12C177.133 11.12 176.433 10.732 175.977 9.956ZM180.213 6.968C180.213 4.68 179.501 3.536 178.077 3.536C176.661 3.536 175.953 4.68 175.953 6.968C175.953 8.048 176.121 8.912 176.457 9.56C176.809 10.208 177.349 10.532 178.077 10.532C178.821 10.532 179.361 10.208 179.697 9.56C180.041 8.92 180.213 8.056 180.213 6.968ZM183.266 9.956C182.81 9.18 182.582 8.184 182.582 6.968C182.582 5.752 182.81 4.78 183.266 4.052C183.73 3.324 184.43 2.96 185.366 2.96C186.302 2.96 186.998 3.324 187.454 4.052C187.918 4.764 188.15 5.736 188.15 6.968C188.15 8.184 187.922 9.18 187.466 9.956C187.01 10.732 186.31 11.12 185.366 11.12C184.422 11.12 183.722 10.732 183.266 9.956ZM187.502 6.968C187.502 4.68 186.79 3.536 185.366 3.536C183.95 3.536 183.242 4.68 183.242 6.968C183.242 8.048 183.41 8.912 183.746 9.56C184.098 10.208 184.638 10.532 185.366 10.532C186.11 10.532 186.65 10.208 186.986 9.56C187.33 8.92 187.502 8.056 187.502 6.968Z" fill="#515151"/>
<rect x="31" y="2" width="128" height="10" rx="5" fill="#D5E3FF"/>
<rect x="31" y="2" width="52" height="10" rx="5" fill="#FF983E"/>
</svg>
