<svg width="195" height="15" viewBox="0 0 195 15" fill="none" xmlns="http://www.w3.org/2000/svg">
<path d="M17 1L18.854 4.6204L23 5.20452L20 8.02103L20.708 12L17 10.1204L13.292 12L14 8.02103L11 5.20452L15.146 4.6204L17 1Z" fill="#FF983E"/>
<path opacity="0.7" d="M7.22984 8.518C7.22984 9.43267 6.89851 10.184 6.23584 10.772C5.57318 11.36 4.77051 11.654 3.82784 11.654C3.08118 11.654 2.42318 11.4767 1.85384 11.122C1.28451 10.7673 0.83651 10.282 0.509844 9.666L1.54584 8.924C2.14318 9.83867 2.88984 10.296 3.78584 10.296C4.34584 10.296 4.80318 10.1373 5.15784 9.82C5.52184 9.49333 5.70384 9.06867 5.70384 8.546C5.70384 8.02333 5.51718 7.622 5.14384 7.342C4.77984 7.05267 4.25718 6.908 3.57584 6.908H1.44784V2.26H6.71184V3.59H2.90384V5.76C3.26784 5.676 3.65984 5.634 4.07984 5.634C4.95718 5.634 5.69918 5.89067 6.30584 6.404C6.92184 6.91733 7.22984 7.622 7.22984 8.518Z" fill="#515151"/>
<path opacity="0.7" d="M171.784 3.08H172.036V11H171.412V3.788L169.576 4.388L169.432 3.848L171.784 3.08ZM174.641 13.16L174.845 10.1H175.589L175.157 13.16H174.641ZM178.991 3.08H179.243V11H178.619V3.788L176.783 4.388L176.639 3.848L178.991 3.08ZM186.78 9.02C186.78 9.636 186.532 10.14 186.036 10.532C185.548 10.924 184.896 11.12 184.08 11.12C183.264 11.12 182.608 10.924 182.112 10.532C181.624 10.132 181.38 9.624 181.38 9.008C181.38 8.032 182.06 7.308 183.42 6.836C182.316 6.388 181.764 5.728 181.764 4.856C181.764 4.264 181.984 3.8 182.424 3.464C182.872 3.128 183.424 2.96 184.08 2.96C184.736 2.96 185.288 3.128 185.736 3.464C186.176 3.8 186.396 4.268 186.396 4.868C186.396 5.748 185.844 6.404 184.74 6.836C186.1 7.308 186.78 8.036 186.78 9.02ZM184.08 6.536C184.672 6.304 185.1 6.068 185.364 5.828C185.636 5.58 185.772 5.264 185.772 4.88C185.772 4.464 185.612 4.132 185.292 3.884C184.98 3.628 184.576 3.5 184.08 3.5C183.584 3.5 183.176 3.628 182.856 3.884C182.536 4.132 182.376 4.464 182.376 4.88C182.376 5.256 182.512 5.572 182.784 5.828C183.056 6.076 183.488 6.312 184.08 6.536ZM186.144 9.008C186.128 8.52 185.96 8.148 185.64 7.892C185.32 7.636 184.8 7.384 184.08 7.136C183.36 7.384 182.84 7.636 182.52 7.892C182.2 8.148 182.032 8.52 182.016 9.008C182.016 9.488 182.2 9.872 182.568 10.16C182.936 10.44 183.44 10.58 184.08 10.58C184.72 10.58 185.224 10.44 185.592 10.16C185.96 9.872 186.144 9.488 186.144 9.008ZM189.052 9.956C188.596 9.18 188.368 8.184 188.368 6.968C188.368 5.752 188.596 4.78 189.052 4.052C189.516 3.324 190.216 2.96 191.152 2.96C192.088 2.96 192.784 3.324 193.24 4.052C193.704 4.764 193.936 5.736 193.936 6.968C193.936 8.184 193.708 9.18 193.252 9.956C192.796 10.732 192.096 11.12 191.152 11.12C190.208 11.12 189.508 10.732 189.052 9.956ZM193.288 6.968C193.288 4.68 192.576 3.536 191.152 3.536C189.736 3.536 189.028 4.68 189.028 6.968C189.028 8.048 189.196 8.912 189.532 9.56C189.884 10.208 190.424 10.532 191.152 10.532C191.896 10.532 192.436 10.208 192.772 9.56C193.116 8.92 193.288 8.056 193.288 6.968Z" fill="#515151"/>
<rect x="30" y="2" width="128" height="10" rx="5" fill="#D5E3FF"/>
<rect x="30" y="2" width="108" height="10" rx="5" fill="#FF983E"/>
</svg>
