<svg width="191" height="14" viewBox="0 0 191 14" fill="none" xmlns="http://www.w3.org/2000/svg">
<path d="M17 0.5L18.854 4.1204L23 4.70452L20 7.52103L20.708 11.5L17 9.6204L13.292 11.5L14 7.52103L11 4.70452L15.146 4.1204L17 0.5Z" fill="#FF983E"/>
<path opacity="0.7" d="M7.68534 8.116V9.39H6.42534V11H4.94134V9.39H0.321336V8.984L3.27534 1.76H4.80134L2.18334 8.116H4.94134V5.274H6.42534V8.116H7.68534Z" fill="#515151"/>
<path opacity="0.7" d="M170.728 9.936H174.94V10.5H169.576V10.32L172.444 7.344C172.972 6.792 173.348 6.332 173.572 5.964C173.796 5.588 173.908 5.204 173.908 4.812C173.908 4.324 173.748 3.908 173.428 3.564C173.116 3.212 172.7 3.036 172.18 3.036C171.652 3.036 171.22 3.22 170.884 3.588C170.556 3.948 170.392 4.368 170.392 4.848C170.392 5.08 170.42 5.312 170.476 5.544H169.828C169.772 5.344 169.744 5.104 169.744 4.824C169.744 4.2 169.968 3.652 170.416 3.18C170.872 2.7 171.456 2.46 172.168 2.46C172.864 2.46 173.436 2.684 173.884 3.132C174.34 3.572 174.568 4.12 174.568 4.776C174.568 5.16 174.492 5.508 174.34 5.82C174.204 6.124 174.036 6.404 173.836 6.66C173.644 6.908 173.328 7.26 172.888 7.716L170.728 9.936ZM177.122 9.456C176.666 8.68 176.438 7.684 176.438 6.468C176.438 5.252 176.666 4.28 177.122 3.552C177.586 2.824 178.286 2.46 179.222 2.46C180.158 2.46 180.854 2.824 181.31 3.552C181.774 4.264 182.006 5.236 182.006 6.468C182.006 7.684 181.778 8.68 181.322 9.456C180.866 10.232 180.166 10.62 179.222 10.62C178.278 10.62 177.578 10.232 177.122 9.456ZM181.358 6.468C181.358 4.18 180.646 3.036 179.222 3.036C177.806 3.036 177.098 4.18 177.098 6.468C177.098 7.548 177.266 8.412 177.602 9.06C177.954 9.708 178.494 10.032 179.222 10.032C179.966 10.032 180.506 9.708 180.842 9.06C181.186 8.42 181.358 7.556 181.358 6.468ZM184.411 9.456C183.955 8.68 183.727 7.684 183.727 6.468C183.727 5.252 183.955 4.28 184.411 3.552C184.875 2.824 185.575 2.46 186.511 2.46C187.447 2.46 188.143 2.824 188.599 3.552C189.063 4.264 189.295 5.236 189.295 6.468C189.295 7.684 189.067 8.68 188.611 9.456C188.155 10.232 187.455 10.62 186.511 10.62C185.567 10.62 184.867 10.232 184.411 9.456ZM188.647 6.468C188.647 4.18 187.935 3.036 186.511 3.036C185.095 3.036 184.387 4.18 184.387 6.468C184.387 7.548 184.555 8.412 184.891 9.06C185.243 9.708 185.783 10.032 186.511 10.032C187.255 10.032 187.795 9.708 188.131 9.06C188.475 8.42 188.647 7.556 188.647 6.468Z" fill="#515151"/>
<rect x="30" y="1.5" width="128" height="10" rx="5" fill="#D5E3FF"/>
<rect x="30" y="1.5" width="72" height="10" rx="5" fill="#FF983E"/>
</svg>
