<svg width="183" height="15" viewBox="0 0 183 15" fill="none" xmlns="http://www.w3.org/2000/svg">
<path d="M18 1L19.854 4.6204L24 5.20452L21 8.02103L21.708 12L18 10.1204L14.292 12L15 8.02103L12 5.20452L16.146 4.6204L18 1Z" fill="#FF983E"/>
<path opacity="0.7" d="M3.81446 2.26H4.33246V11.5H2.84846V4.01L0.972461 4.612L0.608461 3.31L3.81446 2.26Z" fill="#515151"/>
<path opacity="0.7" d="M170.728 10.436H174.94V11H169.576V10.82L172.444 7.844C172.972 7.292 173.348 6.832 173.572 6.464C173.796 6.088 173.908 5.704 173.908 5.312C173.908 4.824 173.748 4.408 173.428 4.064C173.116 3.712 172.7 3.536 172.18 3.536C171.652 3.536 171.22 3.72 170.884 4.088C170.556 4.448 170.392 4.868 170.392 5.348C170.392 5.58 170.42 5.812 170.476 6.044H169.828C169.772 5.844 169.744 5.604 169.744 5.324C169.744 4.7 169.968 4.152 170.416 3.68C170.872 3.2 171.456 2.96 172.168 2.96C172.864 2.96 173.436 3.184 173.884 3.632C174.34 4.072 174.568 4.62 174.568 5.276C174.568 5.66 174.492 6.008 174.34 6.32C174.204 6.624 174.036 6.904 173.836 7.16C173.644 7.408 173.328 7.76 172.888 8.216L170.728 10.436ZM177.122 9.956C176.666 9.18 176.438 8.184 176.438 6.968C176.438 5.752 176.666 4.78 177.122 4.052C177.586 3.324 178.286 2.96 179.222 2.96C180.158 2.96 180.854 3.324 181.31 4.052C181.774 4.764 182.006 5.736 182.006 6.968C182.006 8.184 181.778 9.18 181.322 9.956C180.866 10.732 180.166 11.12 179.222 11.12C178.278 11.12 177.578 10.732 177.122 9.956ZM181.358 6.968C181.358 4.68 180.646 3.536 179.222 3.536C177.806 3.536 177.098 4.68 177.098 6.968C177.098 8.048 177.266 8.912 177.602 9.56C177.954 10.208 178.494 10.532 179.222 10.532C179.966 10.532 180.506 10.208 180.842 9.56C181.186 8.92 181.358 8.056 181.358 6.968Z" fill="#515151"/>
<rect x="31" y="2" width="128" height="10" rx="5" fill="#D5E3FF"/>
<rect x="31" y="2" width="15" height="10" rx="5" fill="#FF983E"/>
</svg>
