<svg width="193" height="156" viewBox="0 0 193 156" fill="none" xmlns="http://www.w3.org/2000/svg">
<rect opacity="0.2" x="10" y="49" width="173" height="107" rx="20" fill="#4F46BB"/>
<rect opacity="0.5" x="4" y="44" width="185" height="107" rx="20" fill="#4F46BB"/>
<rect width="193" height="146" rx="20" fill="#4F46BB"/>
<path opacity="0.5" d="M193 126.04V16.1556C161.9 12.2796 156 73.9999 115.709 77.0467C97 77.0467 83.6943 62.1825 83.6943 62.1825C83.6943 62.1825 65.4005 42.3182 41.6185 42.3182C25.3272 42.3182 0 54.9151 0 54.9151V126C0 137.046 8.95431 146 20 146H173C184.046 146 193 137.085 193 126.04Z" fill="#5950CE"/>
<path opacity="0.5" d="M0 50.2276C0 50.2276 13.6295 40.7155 26.5261 50.2276C36.6578 57.7004 42.9721 91.3051 56.7109 97.7916C68.6019 98.7063 71.9592 89.2809 80.4929 89.102C88.4064 88.9361 97.6027 101.037 104.732 100.078C116.914 98.4397 124.857 85.1912 139.948 83.7439C162.601 81.5713 173.791 110.14 193 107.853C193 113.898 193 119.943 193 125.359C193 136.405 184.046 145.356 173 145.356H20C8.95431 145.356 0 136.401 0 125.356V50.2276Z" fill="#4237B3"/>
<path d="M70 0H123V19.5C123 34.1355 111.136 46 96.5 46C81.8645 46 70 34.1355 70 19.5V0Z" fill="url(#paint0_linear_89_636)"/>
<path d="M51 77L54.09 83.26L61 84.27L56 89.14L57.18 96.02L51 92.77L44.82 96.02L46 89.14L41 84.27L47.91 83.26L51 77Z" fill="#FF983E"/>
<path d="M74 77L77.09 83.26L84 84.27L79 89.14L80.18 96.02L74 92.77L67.82 96.02L69 89.14L64 84.27L70.91 83.26L74 77Z" fill="#FF983E"/>
<path d="M97 77L100.09 83.26L107 84.27L102 89.14L103.18 96.02L97 92.77L90.82 96.02L92 89.14L87 84.27L93.91 83.26L97 77Z" fill="#FF983E"/>
<path d="M120 77L123.09 83.26L130 84.27L125 89.14L126.18 96.02L120 92.77L113.82 96.02L115 89.14L110 84.27L116.91 83.26L120 77Z" fill="#FF983E"/>
<path d="M143 77L146.09 83.26L153 84.27L148 89.14L149.18 96.02L143 92.77L136.82 96.02L138 89.14L133 84.27L139.91 83.26L143 77Z" fill="#26273B"/>
<path d="M143 92.77V77L139.91 83.26L133 84.27L138 89.14L136.82 96.02L143 92.77Z" fill="#FF983E"/>
<path d="M90.6411 46.12V50.68H87.2811V55H81.8811V50.68H68.7611V49.24L76.9211 28.6H82.4811L75.4811 46.12H81.8811V38.72H87.2811V46.12H90.6411ZM93.8683 51.76C93.8683 50.72 94.2283 49.84 94.9483 49.12C95.6683 48.4 96.5616 48.04 97.6283 48.04C98.6683 48.04 99.5349 48.4 100.228 49.12C100.948 49.84 101.308 50.72 101.308 51.76C101.308 52.8267 100.962 53.72 100.268 54.44C99.5749 55.1333 98.6949 55.48 97.6283 55.48C96.5616 55.48 95.6683 55.1333 94.9483 54.44C94.2283 53.72 93.8683 52.8267 93.8683 51.76ZM123.378 37.6C123.378 39.0667 123.085 40.3733 122.498 41.52C121.965 42.64 121.045 44.0933 119.738 45.88L113.178 55H106.778L112.898 46.52H112.698C110.458 46.5733 108.431 45.72 106.618 43.96C104.805 42.1733 103.925 40.04 103.978 37.56C103.925 34.9467 104.871 32.7067 106.818 30.84C108.791 28.9733 111.071 28.0667 113.658 28.12C116.298 28.12 118.578 29.0267 120.498 30.84C122.418 32.6533 123.378 34.9067 123.378 37.6ZM116.738 40.72C117.591 39.8667 118.018 38.8133 118.018 37.56C118.018 36.3067 117.591 35.2533 116.738 34.4C115.911 33.52 114.885 33.08 113.658 33.08C112.458 33.08 111.431 33.5067 110.578 34.36C109.725 35.2133 109.298 36.28 109.298 37.56C109.298 38.8133 109.725 39.8667 110.578 40.72C111.431 41.5733 112.458 42 113.658 42C114.885 42 115.911 41.5733 116.738 40.72Z" fill="white"/>
<path d="M58.4814 109.76H58.7754V119H58.0474V110.586L55.9054 111.286L55.7374 110.656L58.4814 109.76ZM61.815 121.52L62.053 117.95H62.921L62.417 121.52H61.815ZM70.3309 114.044C70.9375 114.529 71.2409 115.225 71.2409 116.13C71.2409 117.035 70.9282 117.763 70.3029 118.314C69.6869 118.865 68.9542 119.14 68.1049 119.14C66.7889 119.14 65.7529 118.538 64.9969 117.334L65.5149 116.956C66.1402 117.964 66.9989 118.468 68.0909 118.468C68.7909 118.468 69.3649 118.253 69.8129 117.824C70.2609 117.385 70.4849 116.821 70.4849 116.13C70.4849 115.449 70.2609 114.917 69.8129 114.534C69.3649 114.142 68.7349 113.946 67.9229 113.946H65.8649V109.76H70.7369V110.418H66.5929V113.386C67.0689 113.33 67.5589 113.302 68.0629 113.302C68.9775 113.302 69.7335 113.549 70.3309 114.044ZM79.1901 116.69C79.1901 117.409 78.9008 117.997 78.3221 118.454C77.7528 118.911 76.9921 119.14 76.0401 119.14C75.0881 119.14 74.3228 118.911 73.7441 118.454C73.1748 117.987 72.8901 117.395 72.8901 116.676C72.8901 115.537 73.6835 114.693 75.2701 114.142C73.9821 113.619 73.3381 112.849 73.3381 111.832C73.3381 111.141 73.5948 110.6 74.1081 110.208C74.6308 109.816 75.2748 109.62 76.0401 109.62C76.8055 109.62 77.4495 109.816 77.9721 110.208C78.4855 110.6 78.7421 111.146 78.7421 111.846C78.7421 112.873 78.0981 113.638 76.8101 114.142C78.3968 114.693 79.1901 115.542 79.1901 116.69ZM76.0401 113.792C76.7308 113.521 77.2301 113.246 77.5381 112.966C77.8555 112.677 78.0141 112.308 78.0141 111.86C78.0141 111.375 77.8275 110.987 77.4541 110.698C77.0901 110.399 76.6188 110.25 76.0401 110.25C75.4615 110.25 74.9855 110.399 74.6121 110.698C74.2388 110.987 74.0521 111.375 74.0521 111.86C74.0521 112.299 74.2108 112.667 74.5281 112.966C74.8455 113.255 75.3495 113.531 76.0401 113.792ZM78.4481 116.676C78.4295 116.107 78.2335 115.673 77.8601 115.374C77.4868 115.075 76.8801 114.781 76.0401 114.492C75.2001 114.781 74.5935 115.075 74.2201 115.374C73.8468 115.673 73.6508 116.107 73.6321 116.676C73.6321 117.236 73.8468 117.684 74.2761 118.02C74.7055 118.347 75.2935 118.51 76.0401 118.51C76.7868 118.51 77.3748 118.347 77.8041 118.02C78.2335 117.684 78.4481 117.236 78.4481 116.676ZM81.8399 117.782C81.3079 116.877 81.0419 115.715 81.0419 114.296C81.0419 112.877 81.3079 111.743 81.8399 110.894C82.3812 110.045 83.1979 109.62 84.2899 109.62C85.3819 109.62 86.1939 110.045 86.7259 110.894C87.2672 111.725 87.5379 112.859 87.5379 114.296C87.5379 115.715 87.2719 116.877 86.7399 117.782C86.2079 118.687 85.3912 119.14 84.2899 119.14C83.1885 119.14 82.3719 118.687 81.8399 117.782ZM86.7819 114.296C86.7819 111.627 85.9512 110.292 84.2899 110.292C82.6379 110.292 81.8119 111.627 81.8119 114.296C81.8119 115.556 82.0079 116.564 82.3999 117.32C82.8105 118.076 83.4405 118.454 84.2899 118.454C85.1579 118.454 85.7879 118.076 86.1799 117.32C86.5812 116.573 86.7819 115.565 86.7819 114.296ZM100.792 119H99.9376L96.8296 114.856H94.5756V119H93.8476V109.76H96.9836C97.8329 109.76 98.5096 109.998 99.0136 110.474C99.5269 110.95 99.7836 111.557 99.7836 112.294C99.7836 112.947 99.5969 113.498 99.2236 113.946C98.8503 114.394 98.3323 114.679 97.6696 114.8L100.792 119ZM94.5756 110.418V114.198H96.9556C97.6089 114.198 98.1176 114.025 98.4816 113.68C98.8456 113.335 99.0276 112.877 99.0276 112.308C99.0276 111.739 98.8456 111.281 98.4816 110.936C98.1176 110.591 97.6089 110.418 96.9556 110.418H94.5756ZM107.042 114.758V119H106.37V117.936C105.857 118.739 105.05 119.14 103.948 119.14C103.286 119.14 102.735 118.981 102.296 118.664C101.848 118.337 101.624 117.885 101.624 117.306C101.624 116.755 101.839 116.317 102.268 115.99C102.698 115.663 103.267 115.5 103.976 115.5H106.328V114.73C106.328 114.095 106.16 113.61 105.824 113.274C105.498 112.929 105.045 112.756 104.466 112.756C103.682 112.756 102.996 113.134 102.408 113.89L101.918 113.498C102.572 112.565 103.435 112.098 104.508 112.098C105.283 112.098 105.899 112.331 106.356 112.798C106.814 113.255 107.042 113.909 107.042 114.758ZM106.328 116.48V116.102H104.046C103.496 116.102 103.076 116.205 102.786 116.41C102.497 116.606 102.352 116.891 102.352 117.264C102.352 117.665 102.511 117.978 102.828 118.202C103.146 118.417 103.542 118.524 104.018 118.524C104.653 118.524 105.194 118.328 105.642 117.936C106.1 117.544 106.328 117.059 106.328 116.48ZM112.929 118.384V119C112.593 119.093 112.243 119.14 111.879 119.14C111.226 119.14 110.717 118.972 110.353 118.636C109.989 118.3 109.807 117.791 109.807 117.11V112.882H108.631V112.238H109.807V110.32H110.521V112.238H112.705V112.882H110.521V117.082C110.521 118.025 111.011 118.496 111.991 118.496C112.243 118.496 112.556 118.459 112.929 118.384ZM114.627 119V112.238H115.327V119H114.627ZM114.529 110.068C114.417 109.947 114.361 109.802 114.361 109.634C114.361 109.466 114.417 109.321 114.529 109.2C114.651 109.079 114.8 109.018 114.977 109.018C115.145 109.018 115.29 109.079 115.411 109.2C115.533 109.321 115.593 109.466 115.593 109.634C115.593 109.802 115.533 109.947 115.411 110.068C115.29 110.189 115.145 110.25 114.977 110.25C114.8 110.25 114.651 110.189 114.529 110.068ZM123.242 114.73V119H122.542V114.772C122.542 114.175 122.369 113.689 122.024 113.316C121.688 112.943 121.23 112.756 120.652 112.756C120.064 112.756 119.578 112.947 119.196 113.33C118.822 113.703 118.636 114.184 118.636 114.772V119H117.936V112.238H118.608V113.148C119.093 112.448 119.812 112.098 120.764 112.098C121.529 112.098 122.131 112.341 122.57 112.826C123.018 113.302 123.242 113.937 123.242 114.73ZM131.426 112.238H132.098V118.398C132.098 119.397 131.8 120.19 131.202 120.778C130.605 121.366 129.826 121.66 128.864 121.66C127.595 121.66 126.559 121.221 125.756 120.344L126.19 119.868C126.946 120.624 127.833 121.002 128.85 121.002C129.625 121.002 130.241 120.773 130.698 120.316C131.165 119.868 131.398 119.238 131.398 118.426V117.53C131.137 117.969 130.759 118.319 130.264 118.58C129.77 118.841 129.233 118.972 128.654 118.972C127.712 118.972 126.918 118.641 126.274 117.978C125.63 117.306 125.308 116.489 125.308 115.528C125.308 114.567 125.63 113.755 126.274 113.092C126.918 112.429 127.712 112.098 128.654 112.098C129.242 112.098 129.788 112.233 130.292 112.504C130.796 112.765 131.174 113.125 131.426 113.582V112.238ZM131.398 115.528C131.398 114.651 131.142 113.974 130.628 113.498C130.115 113.013 129.49 112.77 128.752 112.77C127.978 112.77 127.329 113.036 126.806 113.568C126.293 114.1 126.036 114.758 126.036 115.542C126.036 116.326 126.293 116.984 126.806 117.516C127.329 118.048 127.978 118.314 128.752 118.314C129.49 118.314 130.115 118.071 130.628 117.586C131.142 117.101 131.398 116.415 131.398 115.528ZM134.04 117.74L134.53 117.278C135.164 118.081 135.869 118.482 136.644 118.482C137.082 118.482 137.442 118.379 137.722 118.174C138.011 117.959 138.156 117.665 138.156 117.292C138.128 116.947 138.02 116.695 137.834 116.536C137.656 116.377 137.302 116.177 136.77 115.934L136.154 115.668C135.584 115.416 135.164 115.159 134.894 114.898C134.623 114.627 134.488 114.282 134.488 113.862C134.488 113.33 134.698 112.901 135.118 112.574C135.528 112.257 136.037 112.098 136.644 112.098C137.549 112.098 138.277 112.457 138.828 113.176L138.366 113.624C137.843 113.045 137.255 112.756 136.602 112.756C136.2 112.756 135.869 112.849 135.608 113.036C135.356 113.223 135.23 113.484 135.23 113.82C135.23 114.091 135.318 114.31 135.496 114.478C135.682 114.646 136.018 114.833 136.504 115.038L137.134 115.318C137.74 115.589 138.184 115.869 138.464 116.158C138.744 116.447 138.884 116.816 138.884 117.264C138.884 117.861 138.664 118.323 138.226 118.65C137.787 118.977 137.255 119.14 136.63 119.14C135.538 119.14 134.674 118.673 134.04 117.74Z" fill="white"/>
<defs>
<linearGradient id="paint0_linear_89_636" x1="96.5" y1="-3.43375e-08" x2="97" y2="41" gradientUnits="userSpaceOnUse">
<stop stop-color="#6143E1" stop-opacity="0"/>
<stop offset="1" stop-color="#5249C6"/>
</linearGradient>
</defs>
</svg>
