<svg width="28" height="24" viewBox="0 0 28 24" fill="none" xmlns="http://www.w3.org/2000/svg">
<path d="M6.18279 6.25725C6.51431 6.25725 6.83225 6.12555 7.06667 5.89113C7.3011 5.65671 7.43279 5.33877 7.43279 5.00725V4.26975L11.0328 7.86975C11.7359 8.572 12.689 8.96645 13.6828 8.96645C14.6765 8.96645 15.6297 8.572 16.3328 7.86975L22.0703 2.13225C22.3031 1.89804 22.4338 1.58123 22.4338 1.251C22.4338 0.920766 22.3031 0.603951 22.0703 0.369748C21.9541 0.252587 21.8158 0.159594 21.6635 0.0961335C21.5112 0.0326727 21.3478 0 21.1828 0C21.0178 0 20.8544 0.0326727 20.7021 0.0961335C20.5497 0.159594 20.4115 0.252587 20.2953 0.369748L14.5703 6.09475C14.4541 6.21191 14.3158 6.3049 14.1635 6.36836C14.0112 6.43182 13.8478 6.4645 13.6828 6.4645C13.5178 6.4645 13.3544 6.43182 13.2021 6.36836C13.0497 6.3049 12.9115 6.21191 12.7953 6.09475L9.19529 2.50725H9.93279C10.2643 2.5072 10.5822 2.37548 10.8166 2.14106C11.0509 1.90665 11.1826 1.58874 11.1826 1.25725C11.1826 0.92576 11.0509 0.607847 10.8166 0.373432C10.5822 0.139017 10.2643 0.00729852 9.93279 0.00724778H6.18279C5.93743 0.00744775 5.69755 0.0798554 5.49305 0.215446C5.28855 0.351036 5.12848 0.543812 5.03279 0.769748C4.96981 0.924731 4.93591 1.08999 4.93279 1.25725V5.00725C4.93279 5.33877 5.06449 5.65671 5.29891 5.89113C5.53333 6.12555 5.85127 6.25725 6.18279 6.25725ZM26.1078 15.4572C22.5483 12.7104 18.1789 11.2205 13.6828 11.2205C9.18666 11.2205 4.81727 12.7104 1.25779 15.4572C0.882341 15.7599 0.576397 16.1399 0.360718 16.5712C0.14504 17.0026 0.0246752 17.4753 0.00779118 17.9572C-0.0248509 18.4332 0.0453285 18.9107 0.213563 19.3572C0.381797 19.8036 0.644146 20.2087 0.982791 20.5447L3.18279 22.7947C3.74497 23.3567 4.48866 23.7005 5.28097 23.7646C6.07328 23.8287 6.86257 23.609 7.50779 23.1447L8.09529 22.7447C8.49534 22.4866 8.91303 22.2568 9.34529 22.0572C9.87664 21.8226 10.3002 21.3966 10.5318 20.8639C10.7634 20.3312 10.7861 19.7309 10.5953 19.1822L10.4828 18.8822C12.623 18.3324 14.8675 18.3324 17.0078 18.8822L16.8953 19.1822C16.7045 19.7309 16.7271 20.3312 16.9588 20.8639C17.1904 21.3966 17.6139 21.8226 18.1453 22.0572C18.5775 22.2568 18.9952 22.4866 19.3953 22.7447L19.9828 23.1447C20.5408 23.5542 21.2157 23.7734 21.9078 23.7697C22.8069 23.7709 23.6698 23.4158 24.3078 22.7822L26.5703 20.5072C26.8872 20.1629 27.1278 19.7555 27.2764 19.3118C27.425 18.8681 27.4783 18.398 27.4328 17.9322C27.4033 17.4486 27.2696 16.977 27.0409 16.5499C26.8123 16.1227 26.4939 15.75 26.1078 15.4572ZM24.6828 18.7572L22.4328 21.0197C22.296 21.1622 22.1139 21.2526 21.9178 21.2754C21.7216 21.2983 21.5236 21.252 21.3578 21.1447C21.1203 20.9697 20.8828 20.8072 20.6203 20.6447C20.1801 20.3664 19.7253 20.1119 19.2578 19.8822L19.7578 18.5197C19.8704 18.2081 19.8546 17.8645 19.714 17.5645C19.5733 17.2645 19.3193 17.0326 19.0078 16.9197C15.5764 15.6701 11.8142 15.6701 8.38279 16.9197C8.07125 17.0326 7.81724 17.2645 7.67661 17.5645C7.53597 17.8645 7.52021 18.2081 7.63279 18.5197L8.13279 19.8947C7.65893 20.1152 7.19966 20.3657 6.75779 20.6447L6.03279 21.1447C5.86657 21.264 5.66198 21.3172 5.45871 21.2942C5.25545 21.2711 5.06801 21.1733 4.93279 21.0197L2.68279 18.7572C2.60171 18.6775 2.53773 18.582 2.49475 18.4767C2.45177 18.3714 2.43069 18.2585 2.43279 18.1447C2.44317 18.0164 2.47955 17.8914 2.53972 17.7775C2.59989 17.6636 2.68259 17.5632 2.78279 17.4822C5.90687 15.0759 9.73941 13.771 13.6828 13.771C17.6262 13.771 21.4587 15.0759 24.5828 17.4822C24.683 17.5632 24.7657 17.6636 24.8259 17.7775C24.886 17.8914 24.9224 18.0164 24.9328 18.1447C24.9349 18.2585 24.9138 18.3714 24.8708 18.4767C24.8279 18.582 24.7639 18.6775 24.6828 18.7572Z" fill="white"/>
</svg>
