<svg width="26" height="25" viewBox="0 0 26 25" fill="none" xmlns="http://www.w3.org/2000/svg">
<path d="M17.0544 8.77288C17.2109 8.83247 17.3771 8.86231 17.5446 8.86086H22.5724C22.9057 8.86086 23.2254 8.72844 23.4612 8.49271C23.6969 8.25699 23.8293 7.93728 23.8293 7.60392C23.8293 7.27056 23.6969 6.95085 23.4612 6.71513C23.2254 6.47941 22.9057 6.34698 22.5724 6.34698H20.5738L24.7092 2.21164C24.8407 2.09896 24.9476 1.9603 25.0231 1.80436C25.0985 1.64841 25.1409 1.47856 25.1476 1.30546C25.1543 1.13235 25.1251 0.959732 25.0619 0.798435C24.9987 0.637138 24.9029 0.490645 24.7804 0.36815C24.6579 0.245655 24.5114 0.149803 24.3501 0.0866108C24.1888 0.0234186 24.0162 -0.00574965 23.8431 0.000936655C23.67 0.00762296 23.5001 0.0500195 23.3442 0.125465C23.1882 0.200911 23.0496 0.307777 22.9369 0.439356L18.8015 4.56212V2.56359C18.8016 2.39851 18.7691 2.23504 18.7059 2.08252C18.6428 1.93 18.5502 1.79141 18.4335 1.67467C18.3167 1.55793 18.1782 1.46533 18.0257 1.40215C17.8731 1.33897 17.7097 1.30645 17.5446 1.30645C17.3795 1.30645 17.2161 1.33897 17.0635 1.40215C16.911 1.46533 16.7725 1.55793 16.6557 1.67467C16.539 1.79141 16.4464 1.93 16.3833 2.08252C16.3201 2.23504 16.2876 2.39851 16.2877 2.56359V7.59135C16.2862 7.75881 16.3161 7.92506 16.3756 8.08156C16.4374 8.23596 16.5292 8.37657 16.6457 8.49524C16.7622 8.61391 16.9011 8.70828 17.0544 8.77288ZM21.9439 13.8006C21.6674 13.8006 21.3783 13.7127 21.1017 13.6498C20.5418 13.5264 19.9915 13.3626 19.4552 13.1596C18.872 12.9475 18.2311 12.9585 17.6556 13.1905C17.0801 13.4226 16.6108 13.8593 16.3379 14.4165L16.0614 14.9822C14.8372 14.3011 13.7122 13.4553 12.7179 12.4683C11.731 11.4741 10.8851 10.3491 10.2041 9.12482L10.732 8.77288C11.2893 8.50002 11.7259 8.03069 11.958 7.45522C12.19 6.87974 12.2011 6.23878 11.9889 5.65566C11.7893 5.11822 11.6256 4.56816 11.4987 4.00907C11.4359 3.73254 11.3856 3.44345 11.3479 3.15435C11.1952 2.26899 10.7315 1.46721 10.0402 0.893413C9.34886 0.319616 8.47539 0.0115043 7.57705 0.0245653H3.80623C3.26453 0.019479 2.72809 0.131171 2.23343 0.352037C1.73877 0.572903 1.29751 0.897758 0.939686 1.30449C0.581861 1.71121 0.315872 2.19027 0.159827 2.70903C0.00378171 3.2278 -0.0386553 3.7741 0.0354045 4.31074C0.705025 9.57654 3.10992 14.4692 6.87022 18.2158C10.6305 21.9625 15.5319 24.3495 20.8001 25H21.2777C22.2046 25.0014 23.0995 24.6613 23.7916 24.0447C24.1893 23.6891 24.5069 23.2531 24.7236 22.7656C24.9403 22.278 25.051 21.7501 25.0485 21.2166V17.4458C25.0331 16.5727 24.7152 15.732 24.149 15.0672C23.5828 14.4024 22.8034 13.9548 21.9439 13.8006ZM22.5724 21.3423C22.5721 21.5208 22.5339 21.6971 22.4602 21.8597C22.3865 22.0222 22.2791 22.1672 22.145 22.285C22.0046 22.4063 21.8403 22.4969 21.6628 22.551C21.4854 22.6051 21.2985 22.6215 21.1143 22.5992C16.4069 21.9957 12.0345 19.8421 8.68658 16.4783C5.33869 13.1145 3.20593 8.73182 2.6247 4.02164C2.6047 3.83752 2.62223 3.65126 2.67624 3.4741C2.73025 3.29695 2.81962 3.13259 2.93894 2.99095C3.05673 2.85687 3.20172 2.74941 3.36426 2.67573C3.52681 2.60204 3.70318 2.56381 3.88165 2.56359H7.65247C7.94477 2.55708 8.23019 2.65268 8.45961 2.83392C8.68903 3.01516 8.84809 3.2707 8.90941 3.55657C8.95969 3.90014 9.02254 4.23951 9.09795 4.57469C9.24315 5.23728 9.4364 5.88842 9.67615 6.52295L7.91643 7.33997C7.76597 7.409 7.63063 7.50707 7.51818 7.62855C7.40572 7.75004 7.31838 7.89254 7.26115 8.04787C7.20392 8.2032 7.17794 8.36831 7.1847 8.53371C7.19145 8.69911 7.23082 8.86155 7.30053 9.0117C9.10952 12.8865 12.2243 16.0013 16.0991 17.8103C16.4051 17.936 16.7484 17.936 17.0544 17.8103C17.2111 17.7542 17.3552 17.6676 17.4782 17.5554C17.6012 17.4432 17.7007 17.3076 17.7709 17.1567L18.5502 15.397C19.1999 15.6293 19.8631 15.8224 20.5361 15.9752C20.8713 16.0506 21.2107 16.1134 21.5542 16.1637C21.8401 16.225 22.0957 16.3841 22.2769 16.6135C22.4581 16.8429 22.5537 17.1283 22.5472 17.4206L22.5724 21.3423Z" fill="white"/>
</svg>
