<svg width="21" height="25" viewBox="0 0 21 25" fill="none" xmlns="http://www.w3.org/2000/svg">
<path d="M18.1856 13.7898C17.9564 13.7898 17.7168 13.7017 17.4877 13.6388C17.0236 13.5153 16.5675 13.3513 16.1231 13.1481C15.6398 12.9358 15.1087 12.9468 14.6317 13.1791C14.1548 13.4114 13.7659 13.8485 13.5398 14.4063L13.3106 14.9725C12.296 14.2908 11.3637 13.4441 10.5398 12.4562C9.72181 11.461 9.02082 10.3349 8.45642 9.10946L8.89392 8.75718C9.35576 8.48405 9.71765 8.01427 9.90996 7.43824C10.1023 6.86221 10.1114 6.22062 9.93559 5.63695C9.7702 5.09899 9.63448 4.54839 9.52934 3.98876C9.47726 3.71196 9.43559 3.42259 9.40434 3.13321C9.27785 2.24699 8.89353 1.44444 8.32061 0.870087C7.74769 0.295735 7.02382 -0.0126745 6.27934 0.000399217H3.15434C2.70542 -0.00469197 2.26085 0.107108 1.85091 0.328187C1.44098 0.549267 1.07529 0.874436 0.778747 1.28156C0.482206 1.68868 0.261773 2.1682 0.132453 2.68746C0.00313402 3.20673 -0.0320348 3.75356 0.0293408 4.29072C0.584276 9.56162 2.57729 14.459 5.69356 18.2093C8.80984 21.9595 12.8717 24.3489 17.2377 25H17.6335C18.4016 25.0014 19.1433 24.661 19.7168 24.0438C20.0464 23.6878 20.3096 23.2514 20.4892 22.7634C20.6688 22.2754 20.7606 21.7469 20.7585 21.2129V17.4385C20.7457 16.5645 20.4823 15.723 20.013 15.0576C19.5438 14.3922 18.8979 13.9441 18.1856 13.7898ZM18.7064 21.3388C18.7062 21.5174 18.6746 21.6939 18.6135 21.8566C18.5524 22.0193 18.4634 22.1645 18.3523 22.2824C18.2359 22.4038 18.0998 22.4944 17.9527 22.5486C17.8056 22.6028 17.6508 22.6192 17.4981 22.5969C13.5969 21.9928 9.97334 19.8371 7.19884 16.47C4.42434 13.103 2.65685 8.71608 2.17517 4.00134C2.1586 3.81704 2.17312 3.6306 2.21788 3.45328C2.26264 3.27595 2.3367 3.11143 2.43559 2.96965C2.53321 2.83545 2.65336 2.72789 2.78807 2.65413C2.92277 2.58037 3.06894 2.5421 3.21684 2.54188H6.34184C6.58408 2.53537 6.82062 2.63106 7.01074 2.81247C7.20087 2.99389 7.33268 3.24968 7.38351 3.53582C7.42517 3.87972 7.47726 4.21942 7.53976 4.55493C7.66009 5.21816 7.82024 5.86993 8.01892 6.50508L6.56059 7.32288C6.4359 7.39198 6.32374 7.49014 6.23055 7.61174C6.13735 7.73335 6.06497 7.87598 6.01754 8.03147C5.97011 8.18695 5.94858 8.35222 5.95418 8.51778C5.95978 8.68334 5.9924 8.84593 6.05017 8.99623C7.54934 12.8748 10.1306 15.9926 13.3418 17.8033C13.5954 17.9292 13.8799 17.9292 14.1335 17.8033C14.2634 17.7472 14.3828 17.6605 14.4847 17.5482C14.5867 17.4359 14.6691 17.3002 14.7273 17.1491L15.3731 15.3877C15.9116 15.6203 16.4612 15.8135 17.0189 15.9664C17.2967 16.0419 17.578 16.1048 17.8627 16.1551C18.0996 16.2165 18.3114 16.3757 18.4616 16.6054C18.6118 16.835 18.691 17.1207 18.6856 17.4133L18.7064 21.3388ZM20.7064 0.80562C20.6007 0.49819 20.3985 0.253886 20.1439 0.126215C20.0187 0.0617456 19.8842 0.0275502 19.7481 0.0255623H15.5814C15.3052 0.0255623 15.0402 0.158118 14.8449 0.394068C14.6495 0.630019 14.5398 0.950036 14.5398 1.28372C14.5398 1.6174 14.6495 1.93742 14.8449 2.17337C15.0402 2.40932 15.3052 2.54188 15.5814 2.54188H17.2273L13.8002 6.6938C13.6062 6.92953 13.4973 7.24841 13.4973 7.5808C13.4973 7.91319 13.6062 8.23207 13.8002 8.4678C13.9953 8.70214 14.2594 8.83366 14.5345 8.83366C14.8097 8.83366 15.0738 8.70214 15.2689 8.4678L18.7064 4.32846V6.31635C18.7064 6.65004 18.8162 6.97005 19.0115 7.206C19.2069 7.44195 19.4718 7.57451 19.7481 7.57451C20.0244 7.57451 20.2893 7.44195 20.4847 7.206C20.68 6.97005 20.7898 6.65004 20.7898 6.31635V1.28372C20.7881 1.11931 20.7598 0.956879 20.7064 0.80562Z" fill="white"/>
</svg>
